<svg width="20" height="21" viewBox="0 0 20 21" fill="none" xmlns="http://www.w3.org/2000/svg">
<path d="M19.1056 0.000380247C19.0732 0.00145502 19.0409 0.00443051 19.0088 0.00929274H13.9073C13.7922 0.00758241 13.6778 0.029925 13.5709 0.075022C13.464 0.120119 13.3667 0.187071 13.2847 0.271987C13.2027 0.356903 13.1376 0.45809 13.0931 0.569666C13.0486 0.681243 13.0258 0.800985 13.0258 0.921932C13.0258 1.04288 13.0486 1.16262 13.0931 1.2742C13.1376 1.38577 13.2027 1.48696 13.2847 1.57188C13.3667 1.65679 13.464 1.72375 13.5709 1.76884C13.6778 1.81394 13.7922 1.83628 13.9073 1.83457H17.0243L8.07753 11.2283C7.99411 11.3124 7.92751 11.4132 7.88162 11.5246C7.83574 11.6361 7.8115 11.756 7.81033 11.8775C7.80915 11.9989 7.83106 12.1193 7.87477 12.2317C7.91848 12.3442 7.98312 12.4463 8.06489 12.5321C8.14667 12.618 8.24393 12.6859 8.351 12.7318C8.45807 12.7777 8.57278 12.8007 8.68842 12.7994C8.80406 12.7982 8.91831 12.7727 9.02446 12.7246C9.13062 12.6764 9.22655 12.6065 9.30664 12.5189L18.2534 3.1251V6.39777C18.2518 6.5187 18.273 6.63877 18.316 6.751C18.3589 6.86323 18.4227 6.96537 18.5036 7.05149C18.5844 7.13762 18.6808 7.20601 18.7871 7.25269C18.8934 7.29937 19.0074 7.32341 19.1226 7.32341C19.2378 7.32341 19.3518 7.29937 19.4581 7.25269C19.5644 7.20601 19.6607 7.13762 19.7416 7.05149C19.8225 6.96537 19.8862 6.86323 19.9292 6.751C19.9721 6.63877 19.9934 6.5187 19.9918 6.39777V1.03779C20.0091 0.906398 19.9989 0.772618 19.962 0.64577C19.925 0.518923 19.8622 0.402056 19.7778 0.303308C19.6935 0.20456 19.5896 0.126303 19.4736 0.0739867C19.3575 0.0216704 19.2319 -0.00344811 19.1056 0.000380247ZM1.73842 3.65985C0.788318 3.65985 0 4.48756 0 5.48513V19.1747C0 20.1723 0.788318 21 1.73842 21H14.7765C15.7266 21 16.515 20.1723 16.515 19.1747V10.0483V7.69543L14.7765 9.52071V11.8736V19.1747H1.73842V5.48513H8.69209H10.4305H10.933L12.6714 3.65985H10.4305H8.69209H1.73842Z" fill="white"/>
</svg>
